<?xml version="1.0" encoding="UTF-8" standalone="no"?>
<!-- Created with Inkscape (http://www.inkscape.org/) -->

<svg
   width="64"
   height="64"
   viewBox="0 0 16.933332 16.933333"
   version="1.1"
   id="svg1"
   xml:space="preserve"
   inkscape:version="1.3 (0e150ed6c4, 2023-07-21)"
   sodipodi:docname="favicon-boarder - 64 x 64.svg"
   inkscape:export-filename="favicon-boarder - 64 x 64.png"
   inkscape:export-xdpi="96"
   inkscape:export-ydpi="96"
   xmlns:inkscape="http://www.inkscape.org/namespaces/inkscape"
   xmlns:sodipodi="http://sodipodi.sourceforge.net/DTD/sodipodi-0.dtd"
   xmlns="http://www.w3.org/2000/svg"
   xmlns:svg="http://www.w3.org/2000/svg"><sodipodi:namedview
     id="namedview1"
     pagecolor="#ffffff"
     bordercolor="#000000"
     borderopacity="0.25"
     inkscape:showpageshadow="2"
     inkscape:pageopacity="0.0"
     inkscape:pagecheckerboard="0"
     inkscape:deskcolor="#dfdddd"
     inkscape:document-units="mm"
     inkscape:zoom="9.8499975"
     inkscape:cx="5.025382"
     inkscape:cy="37.461938"
     inkscape:window-width="1920"
     inkscape:window-height="1017"
     inkscape:window-x="3232"
     inkscape:window-y="-8"
     inkscape:window-maximized="1"
     inkscape:current-layer="layer1"
     showguides="false" /><defs
     id="defs1"><linearGradient
       id="swatch1916"
       inkscape:swatch="solid"><stop
         style="stop-color:#ba3736;stop-opacity:1;"
         offset="0"
         id="stop1916" /></linearGradient><linearGradient
       id="swatch1912"><stop
         style="stop-color:#0f9dd3;stop-opacity:1;"
         offset="0"
         id="stop1912" /></linearGradient><rect
       x="82.077873"
       y="114.90902"
       width="1880.066"
       height="434.52991"
       id="rect1912" /></defs><g
     inkscape:label="Layer 1"
     inkscape:groupmode="layer"
     id="layer1"><g
       id="g1900"
       transform="matrix(0.1282292,0,0,0.12979723,-8.5654434,-6.4824174)"><path
         style="fill:#252426;fill-opacity:1"
         d="m 82.739863,157.16335 c 0,-0.15209 0.57699,-1.13436 1.2822,-2.18281 0.705211,-1.04846 3.879027,-6.07347 7.052926,-11.1667 3.173899,-5.09323 9.781061,-15.68979 14.682581,-23.54792 9.0507,-14.51009 15.5848,-25.016485 17.56189,-28.23829 1.44397,-2.353067 1.38142,-2.393169 4.83505,3.100153 4.05939,6.456847 3.87224,5.652157 2.00678,8.628747 -0.85707,1.36756 -3.9504,6.41554 -6.87407,11.21773 -2.92366,4.80219 -8.272,13.51965 -11.8852,19.37215 -3.6132,5.8525 -8.05773,13.10591 -9.87674,16.1187 -4.755583,7.87657 -3.247348,6.97477 -11.665187,6.97477 -4.775536,0 -7.12023,-0.0911 -7.12023,-0.27653 z m 17.462497,-0.41211 c 0,-0.39071 5.8989,-9.74107 6.65461,-10.54824 0.48059,-0.51332 0.91558,-0.51998 28.53442,-0.43734 17.49755,0.0524 28.04639,-0.0101 28.04639,-0.16617 0,-0.22296 -14.44649,-24.22588 -20.10427,-33.40336 -2.55201,-4.1396 -5.14309,-8.41573 -10.58123,-17.462496 -2.14313,-3.56526 -4.28334,-7.097941 -4.75603,-7.850401 -0.85943,-1.36811 -0.85943,-1.36811 2.05083,-6.085416 1.60065,-2.594519 3.21978,-5.230442 3.59807,-5.857606 0.37829,-0.627164 0.79992,-1.071008 0.93695,-0.98632 0.85695,0.529626 24.61367,40.169789 36.31787,60.599529 3.21995,5.62044 11.07131,18.69061 12.55394,20.89856 0.48728,0.72566 0.88596,1.38279 0.88596,1.4603 0,0.0775 -18.93094,0.15099 -42.06875,0.1633 -34.52461,0.0184 -42.06876,-0.0398 -42.06876,-0.32434 z"
         id="path1901"
         inkscape:label="path1901" /><path
         style="fill:#0f9dd3;fill-opacity:1"
         d="m 100.11565,156.85347 c -1.358037,-0.0471 6.00473,-10.17861 6.86348,-10.80969 1.0714,-0.78734 27.97101,-0.81436 27.77197,0.053 -0.13482,0.58752 -2.90601,2.14574 -1.6526,2.78953 0.45745,0.23496 1.60935,1.73817 1.31438,2.73077 -0.39454,1.32765 -4.71789,3.50131 -2.22734,4.26075 7.49292,2.28481 -5.7325,1.02035 -19.12577,1.18767 -9.09411,0.11361 -12.7525,-0.089 -12.94412,-0.21202 z m 60.47959,-16.20787 c -1.3005,-1.79385 -3.44015,-5.44197 -8.40443,-13.66837 -2.37102,-3.92906 -6.01921,-10.15523 -7.94148,-13.28393 -3.69422,-6.01275 -15.87625,-26.318579 -16.09969,-26.615406 -0.80159,-1.064875 -0.84679,-1.994669 0.023,-3.369392 0.47836,-0.756098 1.96819,-2.986622 3.33694,-5.242195 2.55469,-4.209863 2.86116,-4.984061 3.37591,-4.175574 7.54786,11.855066 29.43711,48.270937 32.5936,54.415767 0.36027,0.70135 0.85115,0.74938 0.5804,2.59578 -0.17425,1.18837 -0.43504,2.02752 -1.52764,1.00099 -1.98758,-1.86738 -0.84235,1.37075 -1.36758,2.42108 -0.81671,1.63323 -2.9313,-0.20736 -4.16646,-0.40315 -3.67992,-0.58333 0.45527,6.3244 -0.40252,6.3244 z"
         id="path1900"
         sodipodi:nodetypes="ssssssccsssssscssssssss" /></g><path
       id="rect1"
       style="fill:#666666;fill-rule:evenodd;stroke-width:0.265423"
       d="M 0.01612136,0.01477478 V 16.964127 H 16.992357 V 0.01477478 Z m 0.441135,0.5038452 H 16.548641 V 16.501107 H 0.45725636 Z" /></g></svg>
